<mxfile host="Electron" agent="Mozilla/5.0 (Windows NT 10.0; Win64; x64) AppleWebKit/537.36 (KHTML, like Gecko) draw.io/26.0.4 Chrome/128.0.6613.186 Electron/32.2.5 Safari/537.36" version="26.0.4">
  <diagram name="Page-1" id="tF_BlsU_CDgodZY7WhW-">
    <mxGraphModel dx="2155" dy="1244" grid="1" gridSize="10" guides="1" tooltips="1" connect="1" arrows="1" fold="1" page="1" pageScale="1" pageWidth="827" pageHeight="1169" math="0" shadow="0">
      <root>
        <mxCell id="0" />
        <mxCell id="1" parent="0" />
        <mxCell id="wVY8G-NMAxR_XoTBbCbJ-55" value="" style="rounded=0;whiteSpace=wrap;html=1;gradientColor=none;fillColor=none;" vertex="1" parent="1">
          <mxGeometry x="540" y="930" width="160" height="270" as="geometry" />
        </mxCell>
        <mxCell id="wVY8G-NMAxR_XoTBbCbJ-60" style="edgeStyle=orthogonalEdgeStyle;rounded=0;orthogonalLoop=1;jettySize=auto;html=1;entryX=0.5;entryY=1;entryDx=0;entryDy=0;endArrow=block;endFill=0;" edge="1" parent="1" source="wVY8G-NMAxR_XoTBbCbJ-59" target="wVY8G-NMAxR_XoTBbCbJ-12">
          <mxGeometry relative="1" as="geometry" />
        </mxCell>
        <mxCell id="wVY8G-NMAxR_XoTBbCbJ-59" value="" style="rounded=0;whiteSpace=wrap;html=1;gradientColor=none;fillColor=none;" vertex="1" parent="1">
          <mxGeometry x="710" y="930" width="160" height="240" as="geometry" />
        </mxCell>
        <mxCell id="wVY8G-NMAxR_XoTBbCbJ-61" style="edgeStyle=orthogonalEdgeStyle;rounded=0;orthogonalLoop=1;jettySize=auto;html=1;exitX=1;exitY=0.5;exitDx=0;exitDy=0;entryX=0;entryY=0.5;entryDx=0;entryDy=0;endArrow=none;endFill=0;" edge="1" parent="1" source="wVY8G-NMAxR_XoTBbCbJ-55" target="wVY8G-NMAxR_XoTBbCbJ-59">
          <mxGeometry relative="1" as="geometry" />
        </mxCell>
        <mxCell id="wVY8G-NMAxR_XoTBbCbJ-54" style="edgeStyle=orthogonalEdgeStyle;rounded=0;orthogonalLoop=1;jettySize=auto;html=1;entryX=0.5;entryY=1;entryDx=0;entryDy=0;endArrow=block;endFill=0;" edge="1" parent="1" source="wVY8G-NMAxR_XoTBbCbJ-34" target="wVY8G-NMAxR_XoTBbCbJ-33">
          <mxGeometry relative="1" as="geometry" />
        </mxCell>
        <mxCell id="wVY8G-NMAxR_XoTBbCbJ-34" value="" style="rounded=0;whiteSpace=wrap;html=1;gradientColor=none;fillColor=none;" vertex="1" parent="1">
          <mxGeometry x="160" y="1162.33" width="290" height="171" as="geometry" />
        </mxCell>
        <mxCell id="s_XEeC-91xIK5oSPFAak-21" value="" style="rounded=0;whiteSpace=wrap;html=1;gradientColor=none;fillColor=none;" parent="1" vertex="1">
          <mxGeometry x="730" y="330" width="160" height="310" as="geometry" />
        </mxCell>
        <mxCell id="s_XEeC-91xIK5oSPFAak-29" value="" style="rounded=0;whiteSpace=wrap;html=1;gradientColor=none;fillColor=none;" parent="1" vertex="1">
          <mxGeometry x="350" y="330" width="160" height="240" as="geometry" />
        </mxCell>
        <mxCell id="s_XEeC-91xIK5oSPFAak-25" value="" style="rounded=0;whiteSpace=wrap;html=1;gradientColor=none;fillColor=none;" parent="1" vertex="1">
          <mxGeometry x="160" y="330" width="160" height="240" as="geometry" />
        </mxCell>
        <mxCell id="K9wOshuthqYV9WCiynIV-5" style="edgeStyle=orthogonalEdgeStyle;rounded=0;orthogonalLoop=1;jettySize=auto;html=1;entryX=1;entryY=0.5;entryDx=0;entryDy=0;endArrow=none;endFill=0;" parent="1" source="0lUqsjf5vZ5_rspUAKxU-1" target="0lUqsjf5vZ5_rspUAKxU-8" edge="1">
          <mxGeometry relative="1" as="geometry" />
        </mxCell>
        <mxCell id="K9wOshuthqYV9WCiynIV-7" value="*" style="edgeLabel;html=1;align=center;verticalAlign=middle;resizable=0;points=[];" parent="K9wOshuthqYV9WCiynIV-5" vertex="1" connectable="0">
          <mxGeometry x="-0.4328" relative="1" as="geometry">
            <mxPoint as="offset" />
          </mxGeometry>
        </mxCell>
        <mxCell id="0lUqsjf5vZ5_rspUAKxU-1" value="Entity" style="rounded=0;whiteSpace=wrap;html=1;" parent="1" vertex="1">
          <mxGeometry x="540" y="80" width="120" height="60" as="geometry" />
        </mxCell>
        <mxCell id="s_XEeC-91xIK5oSPFAak-24" style="edgeStyle=orthogonalEdgeStyle;rounded=0;orthogonalLoop=1;jettySize=auto;html=1;entryX=0.5;entryY=0;entryDx=0;entryDy=0;endArrow=none;endFill=0;" parent="1" source="0lUqsjf5vZ5_rspUAKxU-5" target="K9wOshuthqYV9WCiynIV-1" edge="1">
          <mxGeometry relative="1" as="geometry" />
        </mxCell>
        <mxCell id="0lUqsjf5vZ5_rspUAKxU-5" value="Game" style="rounded=0;whiteSpace=wrap;html=1;" parent="1" vertex="1">
          <mxGeometry x="160" y="80" width="120" height="60" as="geometry" />
        </mxCell>
        <mxCell id="K9wOshuthqYV9WCiynIV-8" style="edgeStyle=orthogonalEdgeStyle;rounded=0;orthogonalLoop=1;jettySize=auto;html=1;entryX=1;entryY=0.5;entryDx=0;entryDy=0;endArrow=none;endFill=0;" parent="1" source="0lUqsjf5vZ5_rspUAKxU-6" target="0lUqsjf5vZ5_rspUAKxU-1" edge="1">
          <mxGeometry relative="1" as="geometry" />
        </mxCell>
        <mxCell id="K9wOshuthqYV9WCiynIV-10" value="*" style="edgeLabel;html=1;align=center;verticalAlign=middle;resizable=0;points=[];" parent="K9wOshuthqYV9WCiynIV-8" vertex="1" connectable="0">
          <mxGeometry x="-0.519" relative="1" as="geometry">
            <mxPoint as="offset" />
          </mxGeometry>
        </mxCell>
        <mxCell id="s_XEeC-91xIK5oSPFAak-45" style="edgeStyle=orthogonalEdgeStyle;rounded=0;orthogonalLoop=1;jettySize=auto;html=1;endArrow=none;endFill=0;startArrow=block;startFill=0;" parent="1" source="0lUqsjf5vZ5_rspUAKxU-6" target="s_XEeC-91xIK5oSPFAak-21" edge="1">
          <mxGeometry relative="1" as="geometry">
            <Array as="points">
              <mxPoint x="790" y="200" />
              <mxPoint x="840" y="200" />
            </Array>
          </mxGeometry>
        </mxCell>
        <mxCell id="0lUqsjf5vZ5_rspUAKxU-6" value="Component" style="rounded=0;whiteSpace=wrap;html=1;" parent="1" vertex="1">
          <mxGeometry x="730" y="80" width="120" height="60" as="geometry" />
        </mxCell>
        <mxCell id="K9wOshuthqYV9WCiynIV-2" style="edgeStyle=orthogonalEdgeStyle;rounded=0;orthogonalLoop=1;jettySize=auto;html=1;entryX=1;entryY=0.5;entryDx=0;entryDy=0;endArrow=none;endFill=0;" parent="1" source="0lUqsjf5vZ5_rspUAKxU-8" target="0lUqsjf5vZ5_rspUAKxU-5" edge="1">
          <mxGeometry relative="1" as="geometry" />
        </mxCell>
        <mxCell id="wVY8G-NMAxR_XoTBbCbJ-64" value="1" style="edgeLabel;html=1;align=center;verticalAlign=middle;resizable=0;points=[];" vertex="1" connectable="0" parent="K9wOshuthqYV9WCiynIV-2">
          <mxGeometry x="-0.5238" y="1" relative="1" as="geometry">
            <mxPoint x="-3" y="-1" as="offset" />
          </mxGeometry>
        </mxCell>
        <mxCell id="0lUqsjf5vZ5_rspUAKxU-8" value="Scene" style="rounded=0;whiteSpace=wrap;html=1;" parent="1" vertex="1">
          <mxGeometry x="350" y="80" width="120" height="60" as="geometry" />
        </mxCell>
        <mxCell id="Kq5BAmZCd3fQXp4GfbZt-1" value="Input" style="rounded=0;whiteSpace=wrap;html=1;" parent="1" vertex="1">
          <mxGeometry x="180" y="420" width="120" height="60" as="geometry" />
        </mxCell>
        <mxCell id="Kq5BAmZCd3fQXp4GfbZt-3" value="Graphics" style="rounded=0;whiteSpace=wrap;html=1;" parent="1" vertex="1">
          <mxGeometry x="180" y="350" width="120" height="60" as="geometry" />
        </mxCell>
        <mxCell id="K9wOshuthqYV9WCiynIV-1" value="ServiceLocator" style="rounded=0;whiteSpace=wrap;html=1;" parent="1" vertex="1">
          <mxGeometry x="160" y="190" width="120" height="60" as="geometry" />
        </mxCell>
        <mxCell id="K9wOshuthqYV9WCiynIV-13" value="Transform" style="rounded=0;whiteSpace=wrap;html=1;" parent="1" vertex="1">
          <mxGeometry x="750" y="350" width="120" height="60" as="geometry" />
        </mxCell>
        <mxCell id="K9wOshuthqYV9WCiynIV-22" value="BoxCollider" style="rounded=0;whiteSpace=wrap;html=1;" parent="1" vertex="1">
          <mxGeometry x="750" y="490" width="120" height="60" as="geometry" />
        </mxCell>
        <mxCell id="s_XEeC-91xIK5oSPFAak-9" value="Events" style="rounded=0;whiteSpace=wrap;html=1;" parent="1" vertex="1">
          <mxGeometry x="180" y="490" width="120" height="60" as="geometry" />
        </mxCell>
        <mxCell id="s_XEeC-91xIK5oSPFAak-16" value="EventBus" style="rounded=0;whiteSpace=wrap;html=1;" parent="1" vertex="1">
          <mxGeometry x="370" y="490" width="120" height="60" as="geometry" />
        </mxCell>
        <mxCell id="s_XEeC-91xIK5oSPFAak-17" value="Id" style="rounded=0;whiteSpace=wrap;html=1;" parent="1" vertex="1">
          <mxGeometry x="370" y="350" width="120" height="60" as="geometry" />
        </mxCell>
        <mxCell id="s_XEeC-91xIK5oSPFAak-23" value="Components" style="text;html=1;align=center;verticalAlign=middle;resizable=0;points=[];autosize=1;strokeColor=none;fillColor=none;" parent="1" vertex="1">
          <mxGeometry x="730" y="300" width="90" height="30" as="geometry" />
        </mxCell>
        <mxCell id="s_XEeC-91xIK5oSPFAak-27" style="edgeStyle=orthogonalEdgeStyle;rounded=0;orthogonalLoop=1;jettySize=auto;html=1;endArrow=none;endFill=0;entryX=0.75;entryY=0;entryDx=0;entryDy=0;exitX=0.5;exitY=1;exitDx=0;exitDy=0;" parent="1" source="K9wOshuthqYV9WCiynIV-1" target="s_XEeC-91xIK5oSPFAak-25" edge="1">
          <mxGeometry relative="1" as="geometry">
            <mxPoint x="220" y="310" as="targetPoint" />
            <Array as="points">
              <mxPoint x="220" y="290" />
              <mxPoint x="260" y="290" />
            </Array>
          </mxGeometry>
        </mxCell>
        <mxCell id="s_XEeC-91xIK5oSPFAak-28" value="Services" style="text;html=1;align=center;verticalAlign=middle;resizable=0;points=[];autosize=1;strokeColor=none;fillColor=none;" parent="1" vertex="1">
          <mxGeometry x="160" y="300" width="70" height="30" as="geometry" />
        </mxCell>
        <mxCell id="s_XEeC-91xIK5oSPFAak-30" value="Utils" style="text;html=1;align=center;verticalAlign=middle;resizable=0;points=[];autosize=1;strokeColor=none;fillColor=none;" parent="1" vertex="1">
          <mxGeometry x="350" y="300" width="50" height="30" as="geometry" />
        </mxCell>
        <mxCell id="s_XEeC-91xIK5oSPFAak-34" value="Math" style="rounded=0;whiteSpace=wrap;html=1;" parent="1" vertex="1">
          <mxGeometry x="370" y="420" width="120" height="60" as="geometry" />
        </mxCell>
        <mxCell id="AupHzwdSl03y3eA72RGA-1" value="" style="rounded=0;whiteSpace=wrap;html=1;gradientColor=none;fillColor=none;" parent="1" vertex="1">
          <mxGeometry x="540" y="330" width="160" height="170" as="geometry" />
        </mxCell>
        <mxCell id="AupHzwdSl03y3eA72RGA-2" value="CollisionSystem" style="rounded=0;whiteSpace=wrap;html=1;" parent="1" vertex="1">
          <mxGeometry x="560" y="350" width="120" height="60" as="geometry" />
        </mxCell>
        <mxCell id="AupHzwdSl03y3eA72RGA-4" value="Systems" style="text;html=1;align=center;verticalAlign=middle;resizable=0;points=[];autosize=1;strokeColor=none;fillColor=none;" parent="1" vertex="1">
          <mxGeometry x="540" y="300" width="70" height="30" as="geometry" />
        </mxCell>
        <mxCell id="wVY8G-NMAxR_XoTBbCbJ-37" style="edgeStyle=orthogonalEdgeStyle;rounded=0;orthogonalLoop=1;jettySize=auto;html=1;entryX=0.5;entryY=0;entryDx=0;entryDy=0;endArrow=none;endFill=0;" edge="1" parent="1" source="wVY8G-NMAxR_XoTBbCbJ-5" target="wVY8G-NMAxR_XoTBbCbJ-33">
          <mxGeometry relative="1" as="geometry" />
        </mxCell>
        <mxCell id="wVY8G-NMAxR_XoTBbCbJ-39" value="1" style="edgeLabel;html=1;align=center;verticalAlign=middle;resizable=0;points=[];" vertex="1" connectable="0" parent="wVY8G-NMAxR_XoTBbCbJ-37">
          <mxGeometry x="0.425" y="1" relative="1" as="geometry">
            <mxPoint x="-1" as="offset" />
          </mxGeometry>
        </mxCell>
        <mxCell id="wVY8G-NMAxR_XoTBbCbJ-5" value="MainScene" style="rounded=0;whiteSpace=wrap;html=1;" vertex="1" parent="1">
          <mxGeometry x="160" y="900" width="120" height="60" as="geometry" />
        </mxCell>
        <mxCell id="wVY8G-NMAxR_XoTBbCbJ-6" style="edgeStyle=orthogonalEdgeStyle;rounded=0;orthogonalLoop=1;jettySize=auto;html=1;entryX=1;entryY=0.5;entryDx=0;entryDy=0;endArrow=none;endFill=0;" edge="1" parent="1" source="wVY8G-NMAxR_XoTBbCbJ-8" target="wVY8G-NMAxR_XoTBbCbJ-14">
          <mxGeometry relative="1" as="geometry" />
        </mxCell>
        <mxCell id="wVY8G-NMAxR_XoTBbCbJ-7" value="*" style="edgeLabel;html=1;align=center;verticalAlign=middle;resizable=0;points=[];" vertex="1" connectable="0" parent="wVY8G-NMAxR_XoTBbCbJ-6">
          <mxGeometry x="-0.4328" relative="1" as="geometry">
            <mxPoint as="offset" />
          </mxGeometry>
        </mxCell>
        <mxCell id="wVY8G-NMAxR_XoTBbCbJ-8" value="Entity" style="rounded=0;whiteSpace=wrap;html=1;" vertex="1" parent="1">
          <mxGeometry x="540" y="780" width="120" height="60" as="geometry" />
        </mxCell>
        <mxCell id="wVY8G-NMAxR_XoTBbCbJ-9" value="Game" style="rounded=0;whiteSpace=wrap;html=1;" vertex="1" parent="1">
          <mxGeometry x="160" y="780" width="120" height="60" as="geometry" />
        </mxCell>
        <mxCell id="wVY8G-NMAxR_XoTBbCbJ-10" style="edgeStyle=orthogonalEdgeStyle;rounded=0;orthogonalLoop=1;jettySize=auto;html=1;entryX=1;entryY=0.5;entryDx=0;entryDy=0;endArrow=none;endFill=0;" edge="1" parent="1" source="wVY8G-NMAxR_XoTBbCbJ-12" target="wVY8G-NMAxR_XoTBbCbJ-8">
          <mxGeometry relative="1" as="geometry" />
        </mxCell>
        <mxCell id="wVY8G-NMAxR_XoTBbCbJ-11" value="*" style="edgeLabel;html=1;align=center;verticalAlign=middle;resizable=0;points=[];" vertex="1" connectable="0" parent="wVY8G-NMAxR_XoTBbCbJ-10">
          <mxGeometry x="-0.519" relative="1" as="geometry">
            <mxPoint as="offset" />
          </mxGeometry>
        </mxCell>
        <mxCell id="wVY8G-NMAxR_XoTBbCbJ-12" value="Component" style="rounded=0;whiteSpace=wrap;html=1;" vertex="1" parent="1">
          <mxGeometry x="730" y="780" width="120" height="60" as="geometry" />
        </mxCell>
        <mxCell id="wVY8G-NMAxR_XoTBbCbJ-13" style="edgeStyle=orthogonalEdgeStyle;rounded=0;orthogonalLoop=1;jettySize=auto;html=1;entryX=1;entryY=0.5;entryDx=0;entryDy=0;endArrow=none;endFill=0;" edge="1" parent="1" source="wVY8G-NMAxR_XoTBbCbJ-14" target="wVY8G-NMAxR_XoTBbCbJ-9">
          <mxGeometry relative="1" as="geometry" />
        </mxCell>
        <mxCell id="wVY8G-NMAxR_XoTBbCbJ-65" value="1" style="edgeLabel;html=1;align=center;verticalAlign=middle;resizable=0;points=[];" vertex="1" connectable="0" parent="wVY8G-NMAxR_XoTBbCbJ-13">
          <mxGeometry x="-0.5238" relative="1" as="geometry">
            <mxPoint x="-3" as="offset" />
          </mxGeometry>
        </mxCell>
        <mxCell id="wVY8G-NMAxR_XoTBbCbJ-18" style="edgeStyle=orthogonalEdgeStyle;rounded=0;orthogonalLoop=1;jettySize=auto;html=1;entryX=1;entryY=0.5;entryDx=0;entryDy=0;endArrow=none;endFill=0;startArrow=block;startFill=0;exitX=0.5;exitY=1;exitDx=0;exitDy=0;" edge="1" parent="1" source="wVY8G-NMAxR_XoTBbCbJ-14" target="wVY8G-NMAxR_XoTBbCbJ-5">
          <mxGeometry relative="1" as="geometry" />
        </mxCell>
        <mxCell id="wVY8G-NMAxR_XoTBbCbJ-14" value="Scene" style="rounded=0;whiteSpace=wrap;html=1;" vertex="1" parent="1">
          <mxGeometry x="350" y="780" width="120" height="60" as="geometry" />
        </mxCell>
        <mxCell id="wVY8G-NMAxR_XoTBbCbJ-15" value="" style="endArrow=none;dashed=1;html=1;rounded=0;" edge="1" parent="1">
          <mxGeometry width="50" height="50" relative="1" as="geometry">
            <mxPoint x="50" y="870" as="sourcePoint" />
            <mxPoint x="960" y="870" as="targetPoint" />
          </mxGeometry>
        </mxCell>
        <mxCell id="wVY8G-NMAxR_XoTBbCbJ-16" value="Engine" style="text;html=1;align=center;verticalAlign=middle;resizable=0;points=[];autosize=1;strokeColor=none;fillColor=none;" vertex="1" parent="1">
          <mxGeometry x="50" y="830" width="60" height="30" as="geometry" />
        </mxCell>
        <mxCell id="wVY8G-NMAxR_XoTBbCbJ-17" value="Game" style="text;html=1;align=center;verticalAlign=middle;resizable=0;points=[];autosize=1;strokeColor=none;fillColor=none;" vertex="1" parent="1">
          <mxGeometry x="50" y="880" width="60" height="30" as="geometry" />
        </mxCell>
        <mxCell id="wVY8G-NMAxR_XoTBbCbJ-19" value="Paddle" style="rounded=0;whiteSpace=wrap;html=1;" vertex="1" parent="1">
          <mxGeometry x="560" y="950" width="120" height="60" as="geometry" />
        </mxCell>
        <mxCell id="wVY8G-NMAxR_XoTBbCbJ-20" value="Ball" style="rounded=0;whiteSpace=wrap;html=1;" vertex="1" parent="1">
          <mxGeometry x="560" y="1090" width="120" height="60" as="geometry" />
        </mxCell>
        <mxCell id="wVY8G-NMAxR_XoTBbCbJ-21" value="Block" style="rounded=0;whiteSpace=wrap;html=1;" vertex="1" parent="1">
          <mxGeometry x="560" y="1020" width="120" height="60" as="geometry" />
        </mxCell>
        <mxCell id="wVY8G-NMAxR_XoTBbCbJ-29" value="GameplayState" style="rounded=0;whiteSpace=wrap;html=1;" vertex="1" parent="1">
          <mxGeometry x="310" y="1183.33" width="120" height="60" as="geometry" />
        </mxCell>
        <mxCell id="wVY8G-NMAxR_XoTBbCbJ-30" value="GameLoseState" style="rounded=0;whiteSpace=wrap;html=1;" vertex="1" parent="1">
          <mxGeometry x="310" y="1253.33" width="120" height="60" as="geometry" />
        </mxCell>
        <mxCell id="wVY8G-NMAxR_XoTBbCbJ-31" value="TitleState" style="rounded=0;whiteSpace=wrap;html=1;" vertex="1" parent="1">
          <mxGeometry x="180" y="1183.33" width="120" height="60" as="geometry" />
        </mxCell>
        <mxCell id="wVY8G-NMAxR_XoTBbCbJ-32" value="GameWinState" style="rounded=0;whiteSpace=wrap;html=1;" vertex="1" parent="1">
          <mxGeometry x="180" y="1253.33" width="120" height="60" as="geometry" />
        </mxCell>
        <mxCell id="wVY8G-NMAxR_XoTBbCbJ-33" value="GameState" style="rounded=0;whiteSpace=wrap;html=1;" vertex="1" parent="1">
          <mxGeometry x="160" y="1023.33" width="120" height="60" as="geometry" />
        </mxCell>
        <mxCell id="wVY8G-NMAxR_XoTBbCbJ-36" value="States" style="text;html=1;align=center;verticalAlign=middle;resizable=0;points=[];autosize=1;strokeColor=none;fillColor=none;" vertex="1" parent="1">
          <mxGeometry x="160" y="1133.33" width="60" height="30" as="geometry" />
        </mxCell>
        <mxCell id="wVY8G-NMAxR_XoTBbCbJ-56" value="Entities" style="text;html=1;align=center;verticalAlign=middle;resizable=0;points=[];autosize=1;strokeColor=none;fillColor=none;" vertex="1" parent="1">
          <mxGeometry x="540" y="900" width="60" height="30" as="geometry" />
        </mxCell>
        <mxCell id="wVY8G-NMAxR_XoTBbCbJ-57" value="+ their components" style="text;html=1;align=center;verticalAlign=middle;resizable=0;points=[];autosize=1;strokeColor=none;fillColor=none;" vertex="1" parent="1">
          <mxGeometry x="725" y="1035" width="130" height="30" as="geometry" />
        </mxCell>
        <mxCell id="wVY8G-NMAxR_XoTBbCbJ-58" style="edgeStyle=orthogonalEdgeStyle;rounded=0;orthogonalLoop=1;jettySize=auto;html=1;startArrow=block;startFill=0;endArrow=none;endFill=0;" edge="1" parent="1" source="wVY8G-NMAxR_XoTBbCbJ-8">
          <mxGeometry relative="1" as="geometry">
            <mxPoint x="644" y="930" as="targetPoint" />
          </mxGeometry>
        </mxCell>
        <mxCell id="wVY8G-NMAxR_XoTBbCbJ-62" value="Physics" style="rounded=0;whiteSpace=wrap;html=1;" vertex="1" parent="1">
          <mxGeometry x="750" y="420" width="120" height="60" as="geometry" />
        </mxCell>
        <mxCell id="wVY8G-NMAxR_XoTBbCbJ-63" value="..." style="text;html=1;align=center;verticalAlign=middle;resizable=0;points=[];autosize=1;strokeColor=none;fillColor=none;" vertex="1" parent="1">
          <mxGeometry x="605" y="1160" width="30" height="30" as="geometry" />
        </mxCell>
        <mxCell id="wVY8G-NMAxR_XoTBbCbJ-66" value="ParticleSystem" style="rounded=0;whiteSpace=wrap;html=1;" vertex="1" parent="1">
          <mxGeometry x="560" y="420" width="120" height="60" as="geometry" />
        </mxCell>
        <mxCell id="wVY8G-NMAxR_XoTBbCbJ-67" value="Text" style="rounded=0;whiteSpace=wrap;html=1;" vertex="1" parent="1">
          <mxGeometry x="750" y="560" width="120" height="60" as="geometry" />
        </mxCell>
      </root>
    </mxGraphModel>
  </diagram>
</mxfile>
